<svg width="113" height="87" viewBox="0 0 113 87" fill="none" xmlns="http://www.w3.org/2000/svg">
<path d="M47.0044 64.266C47.0044 77.9091 37.4085 78.9691 25.5714 78.9691C13.7342 78.9691 4.13831 67.9091 4.1383 54.266C4.13831 47.0729 6.80575 40.5978 11.0627 36.0832C14.8799 32.035 19.9752 29.563 25.5714 29.563C37.4085 29.563 47.0044 40.6229 57.0044 44.266Z" fill="#9A4056"/>
<path d="M108.862 54.266C108.862 67.9091 99.2658 78.9691 87.4286 78.9691C75.5915 78.9691 35.9956 67.9091 65.9956 54.266C65.9956 52.5233 66.1521 50.8227 66.45 49.182C68.4837 37.9779 77.1035 29.563 87.4286 29.563C99.2658 29.563 108.862 40.6229 108.862 54.266Z" fill="#9A4056"/>
<path d="M84.7917 24.734C84.7917 37.1672 76.8224 77.455 46.45 69.182C65.4406 9.35 84.4084 19.437 53.3587 79.437C52.9554 69.437 4.2832 60.8942 32.335 29.563C42.0664 28.0013 31.9256 26.3866 41.34567 24.734C41.9256 22.5635 42.1685 20.4585 42.6246 18.4529C45.0355 7.85181 53.4047 0.0309448 63.3587 0.0309448C75.1958 0.0309448 84.7917 11.0909 84.7917 24.734Z" fill="#9A4056"/>
<path d="M47.0044 54.266C47.0044 67.9091 37.4085 78.9691 25.5714 78.9691H87.4286C75.5915 78.9691 65.9956 67.9091 65.9956 54.266C65.9956 52.5233 66.1521 50.8227 66.45 49.182C65.4406 49.35 64.4084 49.437 63.3587 49.437C52.9554 49.437 44.2832 40.8942 42.335 29.563H28.3541H25.5714C37.4085 29.563 47.0044 40.6229 47.0044 54.266Z" fill="#9A4056"/>
<path d="M42.335 29.563C42.0664 28.0013 41.9256 26.3866 41.9256 24.734C41.9256 22.5635 42.1685 20.4585 42.6246 18.4529C40.8336 22.1563 35.472 29.563 28.3541 29.563H42.335Z" fill="#9A4056"/>
</svg>
